<svg xmlns="http://www.w3.org/2000/svg" viewBox="0 0 800 615.08">
	<defs>
		<style>.cls-1{fill:#e72d50;}.cls-2{fill:#49bed2;}.cls-3{fill:#0b142f;}</style>
	</defs>
	<g id="图层_2" data-name="图层 2">
		<g id="图层_1-2" data-name="图层 1">
			<path class="cls-1"
			      d="M89.64,308.86H47.89V574H6.79v41.09H348c198.84,0,332.39-123.78,333.22-306.22h41.93V307a341.43,341.43,0,0,0-2.32-39.27C703.56,107,576.8,0,396.35,0H131.23V40.93H89.64V226.84H0v40.93H89.64Zm111.69-41.09H292v-137h59.16c97.43,0,166.69,71.91,166.69,178.12h70.43v40.93h-116c-14.92,82.85-74.74,135.38-155.1,135.38H250.87V308.86H201.33Z"/>
			<path class="cls-2"
			      d="M131.4,40.93V308.86H89.64V615.08H390.22c198.84,0,332.56-123.78,333.39-306.22H800V267.77H763.21C745.65,107,618.72,0,438.28,0H131.4Zm69.93,226.84H333.89v-137h59c97.44,0,166.7,71.91,166.7,178.12h28.67v40.93H513.67c-14.91,82.85-74.9,135.38-155.26,135.38H292.13V349.79h83.68V308.86H201.33Z"/>
			<path class="cls-2"
			      d="M416.57,267.77V226.84H375.64v40.93ZM682.19,533.06h41.09V574H682.19ZM640.43,574h41.09v40.92H640.43Z"/>
			<path class="cls-3"
			      d="M306.71,615.08H348c198.84,0,332.39-123.78,333.22-306.22h41.93V307a341.43,341.43,0,0,0-2.32-39.27C703.56,107,576.8,0,396.35,0H131.23V308.86H89.64V615.08Zm-105.38-348H292V130.74H392.87c97.44,0,166.7,71.91,166.7,178.12h28.67v40.93H513.67c-14.91,82.85-74.9,135.38-155.26,135.38H250.21V308.86H201.33Z"/>
		</g>
	</g>
</svg>